<svg width="648" height="324" viewBox="0 0 648 324" fill="none" xmlns="http://www.w3.org/2000/svg">
<g clip-path="url(#clip0_281_261)">
<path d="M648 323.999C618.501 294.5 582.959 274.733 545.358 264.687C572.896 237.186 593.795 202.297 604.592 162C564.296 151.203 523.632 151.856 486.046 161.954C496.144 124.368 496.797 83.7037 486 43.4075C445.703 54.2049 410.812 75.1021 383.313 102.642C373.265 65.0429 353.5 29.4989 323.999 0C294.5 29.4989 274.733 65.041 264.687 102.642C237.186 75.1021 202.297 54.2049 162 43.4075C151.203 83.7037 151.856 124.368 161.954 161.954C124.368 151.856 83.7037 151.203 43.4075 162C54.2049 202.297 75.1021 237.188 102.642 264.687C65.0429 274.733 29.4989 294.5 0 323.999C29.4989 353.498 65.041 373.265 102.642 383.313C75.1021 410.814 54.2049 445.703 43.4075 486C83.7037 496.797 124.368 496.144 161.954 486.046C151.856 523.632 151.203 564.296 162 604.592C202.297 593.795 237.188 572.898 264.687 545.358C274.733 582.957 294.5 618.501 323.999 648C353.498 618.501 373.265 582.959 383.311 545.358C410.812 572.898 445.702 593.795 485.998 604.592C496.795 564.296 496.142 523.632 486.042 486.046C523.628 496.146 564.293 496.797 604.589 486C593.791 445.703 572.894 410.812 545.354 383.313C582.953 373.267 618.501 353.498 648 323.999Z" fill="#3A86FE"/>
</g>
<defs>
<clipPath id="clip0_281_261">
<rect width="648" height="324" fill="white"/>
</clipPath>
</defs>
</svg>
