<svg width="6844" height="100" viewBox="0 0 6844 100" fill="none" xmlns="http://www.w3.org/2000/svg">
<g clip-path="url(#clip0_367_4)">
<rect width="6844" height="100" fill="white"/>
<path d="M0 100L107.2 0L214 100H0Z" fill="#F97316"/>
<path d="M214 100L321.2 0L428 100H214Z" fill="#F97316"/>
<path d="M428 100L535.2 0L642 100H428Z" fill="#F97316"/>
<path d="M642 100L748.699 0L855 100H642Z" fill="#F97316"/>
<path d="M855 100L962.2 0L1069 100H855Z" fill="#F97316"/>
<path d="M1069 100L1176.2 0L1283 100H1069Z" fill="#F97316"/>
<path d="M1283 100L1390.2 0L1497 100H1283Z" fill="#F97316"/>
<path d="M1497 100L1604.2 0L1711 100H1497Z" fill="#F97316"/>
<path d="M1711 100L1818.2 0L1925 100H1711Z" fill="#F97316"/>
<path d="M1925 100L2032.2 0L2139 100H1925Z" fill="#F97316"/>
<path d="M2139 100L2246.2 0L2353 100H2139Z" fill="#F97316"/>
<path d="M2353 100L2459.7 0L2566 100H2353Z" fill="#F97316"/>
<path d="M2566 100L2673.2 0L2780 100H2566Z" fill="#F97316"/>
<path d="M2780 100L2887.2 0L2994 100H2780Z" fill="#F97316"/>
<path d="M2994 100L3101.2 0L3208 100H2994Z" fill="#F97316"/>
<path d="M3208 100L3315.2 0L3422 100H3208Z" fill="#F97316"/>
<path d="M3422 100L3529.2 0L3636 100H3422Z" fill="#F97316"/>
<path d="M3636 100L3743.2 0L3850 100H3636Z" fill="#F97316"/>
<path d="M3850 100L3957.2 0L4064 100H3850Z" fill="#F97316"/>
<path d="M4064 100L4170.7 0L4277 100H4064Z" fill="#F97316"/>
<path d="M4277 100L4384.2 0L4491 100H4277Z" fill="#F97316"/>
<path d="M4491 100L4598.2 0L4705 100H4491Z" fill="#F97316"/>
<path d="M4705 100L4812.2 0L4919 100H4705Z" fill="#F97316"/>
<path d="M4919 100L5026.2 0L5133 100H4919Z" fill="#F97316"/>
<path d="M5133 100L5240.2 0L5347 100H5133Z" fill="#F97316"/>
<path d="M5347 100L5454.2 0L5561 100H5347Z" fill="#F97316"/>
<path d="M5561 100L5668.2 0L5775 100H5561Z" fill="#F97316"/>
<path d="M5775 100L5881.7 0L5988 100H5775Z" fill="#F97316"/>
<path d="M5988 100L6095.2 0L6202 100H5988Z" fill="#F97316"/>
<path d="M6202 100L6309.2 0L6416 100H6202Z" fill="#F97316"/>
<path d="M6416 100L6523.2 0L6630 100H6416Z" fill="#F97316"/>
<path d="M6630 100L6737.2 0L6844 100H6630Z" fill="#F97316"/>
</g>
<defs>
<clipPath id="clip0_367_4">
<rect width="6844" height="100" fill="white"/>
</clipPath>
</defs>
</svg>
