<svg width="32" height="32" viewBox="0 0 32 32" fill="none" xmlns="http://www.w3.org/2000/svg">
<path d="M21.5926 4.95696C22.9972 4.82027 24.3954 4.88447 25.5908 5.68079C26.3229 6.3386 26.5331 7.44416 26.6 8.38362C26.6129 8.66068 26.6239 8.93866 26.6331 9.21663C26.6367 9.32396 26.6403 9.43038 26.644 9.54046C26.6926 11.046 26.7092 12.5524 26.7266 14.0579C26.7266 14.0974 26.7266 14.0974 26.7293 14.2965C26.7422 15.4387 26.7541 16.581 26.7642 17.7232C26.7651 17.8819 26.767 18.0406 26.7688 18.1993C26.7771 19.1553 26.7844 20.1104 26.7872 21.0663C26.7881 21.3351 26.7899 21.603 26.7926 21.8718C26.7954 22.2434 26.7963 22.6159 26.7963 22.9874C26.7973 23.0948 26.7991 23.2021 26.8 23.3131C26.7973 24.2884 26.6688 25.2618 26.0321 26.037C25.0559 26.9912 23.9 27.071 22.5945 27.0838C22.5348 27.0847 22.5348 27.0848 22.2375 27.0894C21.9256 27.094 21.6137 27.0976 21.3018 27.1013C21.0532 27.104 20.8045 27.1077 20.5559 27.1114C19.0486 27.1334 17.5403 27.1444 16.032 27.138C15.9623 27.1371 15.8925 27.1371 15.8209 27.1362C14.7705 27.1316 13.72 27.1251 12.6696 27.1159C12.1971 27.1114 11.7236 27.1077 11.2511 27.1059C10.7869 27.1031 10.3227 27.0994 9.85845 27.0948C9.68416 27.0939 9.50895 27.0921 9.33374 27.0921C7.00528 27.0829 7.00523 27.0829 6.12358 26.2205C5.47037 25.4591 5.35195 24.4077 5.32993 23.4398C5.32718 23.3444 5.32452 23.2489 5.32085 23.1517C5.27131 21.3599 5.26305 19.5663 5.24653 17.7737C5.2447 17.5727 5.2428 17.3718 5.24097 17.1699C5.23087 16.0809 5.22172 14.9919 5.21255 13.902C5.20796 13.3332 5.2034 12.7643 5.1979 12.1955C5.1924 11.579 5.18776 10.9634 5.18501 10.3469C5.18409 10.1359 5.18225 9.92487 5.18042 9.71477C5.17767 9.42946 5.17675 9.14507 5.17583 8.86067C5.17491 8.78086 5.17401 8.7019 5.1731 8.62024C5.17677 7.62667 5.50525 6.78726 6.1814 6.05882C6.77956 5.50469 7.40522 5.29365 8.20796 5.20374C8.27584 5.1964 8.34469 5.18905 8.4144 5.18079C9.17038 5.10006 9.92458 5.07623 10.6842 5.06155C10.8383 5.05788 10.9934 5.05415 11.1475 5.0514C13.0411 5.01103 14.9356 5.02023 16.8292 5.02757C17.4559 5.0294 18.0834 5.03124 18.71 5.03216C18.9559 5.03308 19.2017 5.03398 19.4476 5.03489C20.1669 5.03765 20.8761 5.02944 21.5926 4.95696ZM20.8796 13.4708C20.1972 13.2231 19.5122 13.1575 18.8616 13.3027C18.7104 13.3298 18.5701 13.372 18.4338 13.4306C18.1758 13.5284 17.9248 13.6623 17.6833 13.8341V14.0176H17.4998C17.3622 14.1781 17.3621 14.1782 17.2246 14.3846C17.224 14.3862 17.2233 14.3879 17.2228 14.3895C17.134 14.584 17.1324 14.5872 17.044 14.7472C17.043 14.7486 17.0421 14.7501 17.0411 14.7516C16.709 14.8204 16.7089 14.8205 16.3989 14.8434C16.3934 14.7498 16.3878 14.6581 16.3823 14.5663C16.363 14.2663 16.363 14.2663 16.3593 14.2075C16.3437 13.97 16.3933 13.6461 16.2154 13.4672C15.7365 13.4351 15.7364 13.4351 14.6529 13.492C14.5896 13.4957 14.5281 13.4984 14.4667 13.5021C14.1135 13.5213 14.1134 13.5213 13.83 13.5589C13.6465 13.7424 13.6465 13.7425 13.6245 13.9425C13.6254 14.0269 13.6253 14.1086 13.6253 14.1911C13.6263 14.2856 13.6262 14.3783 13.6262 14.47C13.6271 14.57 13.6281 14.6663 13.6299 14.7635C13.6299 15.2681 13.6363 15.7718 13.6675 16.2755C13.7189 17.0113 13.7502 17.7435 13.7584 18.4811C13.7594 18.6691 13.7611 18.8572 13.7629 19.0452C13.7694 19.5893 13.7758 20.1343 13.7804 20.6783C13.7832 21.0214 13.7868 21.3637 13.7905 21.7068C13.7923 21.837 13.7942 21.9664 13.796 22.0967C13.796 22.2224 13.7969 22.3481 13.7978 22.4738C13.7996 22.5912 13.8006 22.7059 13.8024 22.8205C13.8051 23.126 13.8053 23.1261 13.83 23.3756C14.0135 23.6508 14.0135 23.6508 14.1804 23.6857C14.3473 23.6848 14.3474 23.6848 14.3804 23.6848H14.6034C14.8006 23.6811 14.8007 23.6811 14.8392 23.6802C15.4465 23.6729 16.1007 23.6921 16.6741 23.4673C16.8851 23.0462 16.885 23.0462 16.7245 21.7618C16.5089 20.3297 16.3713 18.5866 16.9328 17.2122C17.2309 16.6361 17.6154 16.3278 18.2337 16.1278C18.6878 16.0819 19.1264 16.081 19.5135 16.3378C19.9979 16.7415 20.1703 17.3306 20.2428 17.9406C20.2492 18.0094 20.2567 18.0755 20.2631 18.1415C20.3677 19.1287 20.3677 19.1288 20.3897 21.1627C20.3934 21.4361 20.3961 21.7087 20.4007 21.9821C20.4017 22.0701 20.4035 22.1545 20.4044 22.2398C20.4054 22.4452 20.4053 22.4453 20.4062 22.4857C20.4071 22.5636 20.4081 22.6388 20.4099 22.715C20.4127 23.015 20.4714 23.2058 20.6191 23.4673C20.9071 23.4774 21.1943 23.4848 21.4824 23.4903C21.6016 23.4921 21.7182 23.494 21.8347 23.4967C21.9539 23.5004 22.0686 23.5041 22.1833 23.5077C22.2979 23.5096 22.4081 23.5114 22.5191 23.5123C22.8851 23.5215 23.0329 23.5224 23.3145 23.2821C23.4705 22.9967 23.5034 22.793 23.4998 22.47C23.497 22.3994 23.4943 22.3315 23.4916 22.2636C23.487 22.0379 23.4815 21.8122 23.4732 21.5874C23.4695 21.5095 23.4668 21.4333 23.4631 21.3572C23.4466 20.9232 23.4274 20.4893 23.4026 20.0554C23.3897 19.8361 23.3769 19.6177 23.365 19.3985C23.2925 18.0535 23.2907 16.6571 22.8099 15.3827C22.4108 14.48 21.7732 13.869 20.8796 13.4708ZM10.2523 13.6286C9.94866 13.6268 9.94858 13.6267 9.88804 13.6258C9.5982 13.6267 9.59812 13.6268 9.54126 13.6268C8.9477 13.6277 8.76512 13.6773 8.75962 14.3048C8.75962 14.3718 8.7606 14.4369 8.7606 14.503C8.75968 14.7231 8.7587 14.9433 8.75962 15.1625V16.6424C8.76054 17.0736 8.76151 17.5039 8.7606 17.9351C8.75693 19.392 8.74037 20.8525 8.84312 22.3067C8.85045 22.4048 8.85873 22.5003 8.86606 22.5957C8.89817 22.9985 8.85693 23.3572 9.15142 23.6517C9.31653 23.6627 9.48168 23.6728 9.64771 23.6719C9.81278 23.6691 9.81288 23.6691 9.84497 23.6682C10.5147 23.6609 11.2101 23.7031 11.812 23.3765C11.8138 22.6288 11.8156 21.8819 11.8166 21.1342C11.8166 20.7489 11.8174 20.3636 11.8183 19.9782C11.822 18.4617 11.8267 16.9451 11.7881 15.4295C11.7845 15.302 11.7808 15.1754 11.7771 15.0479C11.7743 14.924 11.7716 14.8029 11.7688 14.6827C11.7651 14.5699 11.7615 14.4598 11.7579 14.3507C11.7496 14.0608 11.7496 14.0607 11.7203 13.8351C11.5368 13.6516 11.5367 13.6516 11.2826 13.6278C11.1743 13.6268 11.0688 13.6268 10.9633 13.6268C10.845 13.6268 10.7312 13.6258 10.6166 13.6258C10.4927 13.6267 10.3725 13.6277 10.2523 13.6286ZM10.906 8.51917C10.1262 8.25403 9.42887 8.41916 8.84722 9.00081C8.49951 9.55495 8.38665 9.94403 8.3894 10.5936C8.44905 11.0504 8.73076 11.4119 9.06011 11.7247C9.56928 12.0238 10.0427 12.0523 10.6198 12C11.0941 11.8413 11.4703 11.4899 11.7583 11.0825C12.0299 10.5826 12.0491 10.1743 11.9436 9.61468C11.7124 9.13211 11.3455 8.8155 10.906 8.51917Z" fill="white"/>
</svg>
