<svg width="32" height="32" viewBox="0 0 32 32" fill="none" xmlns="http://www.w3.org/2000/svg">
<path d="M7.94251 7.10774C23.4373 4.85659 23.4374 4.85655 26.9264 7.69426C28.2442 8.96267 28.459 11.46 28.4931 13.1902C28.5048 13.9259 28.4994 14.6616 28.494 15.3973C28.4922 15.6713 28.4921 15.9453 28.4912 16.2193C28.4903 17.034 28.4841 17.8479 28.4734 18.6617C28.4707 18.8692 28.4679 19.0767 28.4661 19.2842C28.4625 19.6274 28.4571 19.9697 28.4499 20.3128C28.4481 20.4395 28.4464 20.567 28.4446 20.6946C28.4311 22.0411 28.2209 23.2512 27.3927 24.3471C27.3253 24.4432 27.2588 24.5393 27.1906 24.6381C26.0156 25.8131 24.545 25.9793 22.9739 26.0988C22.7744 26.114 22.5741 26.1294 22.3747 26.1455C22.2355 26.1563 22.0962 26.1671 21.957 26.1779C21.5851 26.2075 21.2132 26.2398 20.8422 26.2784C19.6097 26.406 18.3916 26.4392 17.1529 26.4365C16.9525 26.4365 16.7513 26.4365 16.5501 26.4374C16.1315 26.4374 15.7138 26.4374 15.2951 26.4365C14.767 26.4347 14.2378 26.4356 13.7087 26.4365C13.2946 26.4374 12.8805 26.4374 12.4656 26.4365C12.2715 26.4365 12.0765 26.4365 11.8816 26.4374C10.8279 26.4392 9.77957 26.4133 8.72767 26.3387C8.63335 26.3324 8.53992 26.326 8.4429 26.3197C7.24007 26.2245 5.83689 25.9317 4.93499 25.0657C4.2433 24.2438 4.09507 23.3041 3.98548 22.2639C3.96392 22.0636 3.94153 21.8633 3.91907 21.663C3.90829 21.5678 3.89743 21.4726 3.88665 21.3738C3.84982 21.0558 3.80311 20.7395 3.7555 20.4224C3.45457 18.1587 3.42586 15.673 3.7223 13.4084C3.77529 12.9943 3.79052 12.5802 3.80579 12.1634C3.87406 10.6785 4.03939 9.20887 5.19817 8.14797C5.96263 7.52635 6.77564 7.27305 7.74222 7.1383C7.80778 7.12842 7.87425 7.11852 7.94251 7.10774ZM26.3145 8.80588C25.9866 9.4832 25.5896 10.0546 25.0973 10.6223C24.9132 10.8307 24.9131 10.8307 24.8772 10.872C24.5376 11.2655 24.1918 11.6536 23.8442 12.0399C23.6564 12.2474 23.4686 12.4548 23.2863 12.6677C22.6907 13.3666 22.0403 14.0278 21.3459 14.6279C21.177 14.7716 21.0136 14.9153 20.8564 15.0698C20.6013 15.3295 20.3452 15.5836 20.0712 15.8235C19.8871 15.9825 19.702 16.1406 19.5205 16.3023C18.7004 17.0344 17.8632 17.8482 16.8149 18.2381C16.2597 18.4187 15.7387 18.3828 15.2177 18.1277C15.1593 18.0962 15.1027 18.0666 15.0461 18.0361C14.2942 17.6462 13.6079 17.1728 12.9297 16.6661C12.8686 16.6203 12.8093 16.5763 12.75 16.5314C11.9766 15.9583 11.2606 15.3447 10.5654 14.6799C10.3399 14.4634 10.1145 14.2478 9.88001 14.0421C9.49374 13.7088 9.12355 13.3657 8.76243 13.0055C8.69417 12.9363 8.62771 12.8698 8.56214 12.8033C7.70786 11.9455 6.82124 11.0939 6.09183 10.1255C5.88612 9.83357 5.81781 9.78685 5.47376 9.61438C5.32105 9.85871 5.17285 10.0959 5.02464 10.333C5.59237 11.1011 6.27507 12.2195 7.11409 12.6938C7.16708 12.7153 7.21915 12.737 7.27034 12.7585V12.9381C7.49311 13.0863 7.66204 13.2328 7.84798 13.4223C7.95578 13.5328 8.0645 13.6433 8.1723 13.7538C8.24145 13.8239 8.30884 13.8921 8.3762 13.9604C8.56395 14.1508 8.75352 14.3368 8.95384 14.5129C9.36435 14.8677 9.76498 15.2307 10.1539 15.6079C10.2276 15.6798 10.2986 15.7489 10.3696 15.8181C10.4459 15.8899 10.5195 15.96 10.5932 16.0301C10.6651 16.1002 10.7352 16.1685 10.8043 16.2367C11.0495 16.473 11.1277 16.5601 11.1591 16.9032C11.1043 17.4449 11.1044 17.445 9.91321 18.8769C9.76591 19.0529 9.61949 19.2281 9.47308 19.4041C9.28443 19.6305 9.28434 19.6305 9.24661 19.6754C9.02654 19.9377 8.80829 20.2009 8.59271 20.4677C8.25046 20.8908 7.9028 21.3022 7.5345 21.702C7.31442 21.94 7.10146 22.1772 6.89935 22.4305C6.61009 22.8051 6.32982 23.1411 5.9678 23.4484C5.7855 23.5938 5.78547 23.5939 5.65345 23.7178V23.8975C5.84299 24.2164 6.02267 24.3233 6.3721 24.4364C7.20302 23.4905 8.02768 22.5375 8.84603 21.5808C9.02568 21.3706 9.20619 21.1594 9.38675 20.9501C9.76673 20.51 10.1486 20.0725 10.5142 19.6206C10.5717 19.5479 10.6282 19.4769 10.6839 19.406C10.8043 19.2569 10.9238 19.1068 11.0433 18.9568C11.1762 18.7843 11.3101 18.6118 11.4466 18.442C11.4942 18.3827 11.5409 18.3243 11.5876 18.2659C11.7583 18.0414 11.9038 17.8869 12.1212 17.6991C12.5111 17.6794 12.6944 17.7513 13.0159 17.9687C13.7157 18.5705 14.4613 19.1329 15.3551 19.406C16.1483 19.556 16.9335 19.4814 17.6494 19.0951C17.724 19.0475 17.7977 19.0026 17.8704 18.9568C18.2387 18.7295 18.5854 18.4852 18.9142 18.2031C18.9672 18.1573 19.0176 18.1124 19.0688 18.0684C19.173 17.9768 19.2771 17.886 19.3804 17.7944C19.6346 17.5608 19.8323 17.3569 20.1844 17.3003C20.4135 17.3452 20.4135 17.3452 20.6983 17.6722C20.9094 17.9174 21.1195 18.1627 21.3468 18.3936C21.6406 18.6819 21.9245 18.9756 22.1993 19.282C22.3853 19.4913 22.5712 19.6997 22.7608 19.9054C23.2135 20.3896 23.6672 20.8684 24.0795 21.3876C24.2655 21.6266 24.4532 21.8611 24.6491 22.0919C25.0272 22.5339 25.3758 22.9686 25.6803 23.4654C25.8573 23.7699 25.8851 23.8741 26.2246 23.9873C26.266 23.9379 26.3055 23.8903 26.3459 23.8427C26.398 23.7771 26.4492 23.7142 26.4995 23.6504C26.6549 23.4609 26.6549 23.4609 26.7636 23.2687C26.7537 23.0216 26.6738 22.9093 26.5291 22.709C26.4636 22.6318 26.4007 22.5572 26.3369 22.4826C26.2615 22.3928 26.1878 22.3057 26.1151 22.2186C25.9857 22.0659 25.8581 21.9122 25.7332 21.7568C25.0919 20.9492 24.4281 20.1785 23.7175 19.4311C23.5576 19.2622 23.4003 19.0925 23.2458 18.9182C22.8802 18.4915 22.4949 18.0917 22.0924 17.6991C21.6801 17.3057 21.3253 16.9715 21.2336 16.3912C21.2875 16.0625 21.3504 15.9932 21.5822 15.774C21.6962 15.6672 21.8086 15.5585 21.92 15.4489C21.9909 15.378 22.0592 15.3097 22.1283 15.2414C22.2029 15.1669 22.2757 15.0941 22.3485 15.0222C22.4257 14.9449 22.5003 14.8713 22.5757 14.7967C22.9871 14.388 23.3976 13.9819 23.7794 13.5445C23.9537 13.3414 24.1289 13.1411 24.3085 12.9426C24.3849 12.8591 24.4603 12.7782 24.5349 12.6965C24.7541 12.4576 24.9733 12.2177 25.197 11.9815C25.8177 11.3257 26.7573 10.5558 26.8534 9.61438C26.7196 9.28022 26.5732 9.05111 26.3145 8.80588Z" fill="white"/>
</svg>
