<svg width="32" height="32" viewBox="0 0 32 32" fill="none" xmlns="http://www.w3.org/2000/svg">
<path d="M19.8084 3.79982C20.9154 3.79682 21.7544 4.18084 22.6204 4.84582C22.6594 4.87382 22.6594 4.8739 22.8524 5.01789C23.0864 5.19188 23.3194 5.36883 23.5524 5.54582C23.6924 5.65081 23.8334 5.75684 23.9744 5.86183C24.1744 6.01182 24.3744 6.16182 24.5734 6.31281C25.0734 6.6888 25.5804 7.05585 26.0914 7.41584C27.0794 8.11283 27.0794 8.11289 27.3274 8.60187C27.3674 8.67786 27.4085 8.75484 27.4505 8.83283C27.7985 9.90382 27.6674 11.1568 27.6644 12.2698V12.5859C27.6624 13.2888 27.6594 13.9919 27.6564 14.6948C27.6534 15.1428 27.6514 15.5919 27.6494 16.0399C27.6444 17.2939 27.6374 18.5479 27.6284 19.8019C27.6244 20.3919 27.6205 20.9819 27.6175 21.5719C27.6155 22.1369 27.6114 22.7018 27.6054 23.2668C27.6044 23.4788 27.6034 23.6899 27.6024 23.9009C27.6014 24.1939 27.5984 24.4869 27.5954 24.7799V25.0378C27.5854 25.6998 27.4874 26.3568 27.0584 26.8828C26.2584 27.3078 25.2664 27.4409 24.3694 27.4799C24.2554 27.4849 24.1424 27.4898 24.0255 27.4948C23.9035 27.4998 23.7814 27.5049 23.6564 27.5099C23.4594 27.5189 23.2634 27.5278 23.0664 27.5368C22.8584 27.5458 22.6504 27.5549 22.4425 27.5639C20.1155 27.6659 17.7934 27.7909 15.4715 27.9809C14.0945 28.0929 12.7174 28.1719 11.3354 28.1859C11.1784 28.1879 11.0214 28.1918 10.8644 28.1958C9.26844 28.2428 9.26844 28.2428 8.62244 27.7128C8.38245 27.4768 8.16041 27.2419 7.95242 26.9769C7.91142 26.9249 7.86942 26.8738 7.82742 26.8208C7.74243 26.7148 7.65838 26.6079 7.57439 26.5009C7.3844 26.2589 7.19046 26.0208 6.99646 25.7828C6.92247 25.6928 6.84941 25.6029 6.77342 25.5099C6.55742 25.2509 6.33142 25.0048 6.10242 24.7578C5.76843 24.3888 5.46038 24.0069 5.17039 23.6019C5.1354 23.5519 5.13539 23.5518 4.95642 23.3019C4.37443 22.3519 4.29442 21.4218 4.30242 20.3288C4.30142 20.1789 4.30147 20.0299 4.30047 19.8799C4.29947 19.4769 4.30044 19.0738 4.30144 18.6708C4.30344 18.2468 4.30242 17.8239 4.30242 17.4009C4.30142 16.6899 4.30345 15.9798 4.30545 15.2698C4.30845 14.4499 4.3084 13.6299 4.3074 12.8099C4.3064 12.0189 4.30638 11.2278 4.30838 10.4368V8.83683C4.30888 8.6391 4.30991 8.44135 4.31141 8.24387V7.80988C4.30641 6.1969 4.30647 6.19682 4.82146 5.52482C4.88344 5.47185 4.94441 5.41886 5.00838 5.36388C5.03837 5.33689 5.03842 5.33681 5.19041 5.19982C6.18941 4.61183 7.38944 4.65488 8.51443 4.58888C8.80643 4.57088 9.09746 4.55183 9.38846 4.53283C9.57943 4.52083 9.77141 4.50889 9.96238 4.49689C10.6824 4.45089 11.4014 4.39583 12.1204 4.33283C12.8894 4.26583 13.6574 4.21084 14.4284 4.16984C14.7524 4.14584 14.7524 4.14589 15.0364 4.09689C16.4984 3.8579 18.0284 3.82683 19.5084 3.80783C19.5584 3.80683 19.5584 3.80682 19.8084 3.79982ZM25.6524 9.64582C25.3284 9.48383 24.9764 9.52687 24.6204 9.52687C24.5484 9.52587 24.4764 9.52387 24.4024 9.52287C23.8114 9.52187 23.2314 9.57583 22.6444 9.63683C21.7174 9.73183 20.7894 9.78384 19.8584 9.82384C19.7884 9.82684 19.7174 9.82983 19.6454 9.83283C19.1324 9.85383 18.6204 9.87482 18.1084 9.89582C17.5254 9.91882 16.9424 9.94281 16.3584 9.96681C16.2884 9.96981 16.2184 9.9729 16.1465 9.9759C15.1815 10.0179 14.2204 10.0789 13.2595 10.1778C12.5745 10.2488 11.8894 10.2788 11.2014 10.2948C10.5834 10.3118 10.1034 10.4109 9.63641 10.8469C9.37743 11.2659 9.39139 11.6119 9.39139 12.0948C9.38939 12.1928 9.38741 12.2908 9.38641 12.3918C9.38141 12.7248 9.37942 13.0569 9.37742 13.3889C9.37442 13.6259 9.37144 13.8628 9.36844 14.0998C9.36044 14.8658 9.3564 15.6319 9.3534 16.3988C9.3524 16.6578 9.35039 16.9169 9.34939 17.1769C9.34239 18.4359 9.33745 19.6939 9.33445 20.9528C9.33345 21.2448 9.33242 21.5379 9.33142 21.8299C9.32942 22.2959 9.32937 22.7609 9.32937 23.2269C9.32937 23.3998 9.3284 23.5728 9.3284 23.7458C9.3274 23.9848 9.32742 24.2249 9.32742 24.4639C9.32742 24.4979 9.32744 24.4979 9.32644 24.6738C9.32944 25.2318 9.39047 25.7438 9.74646 26.1868C10.2075 26.4258 10.6275 26.3928 11.1385 26.3788C11.2484 26.3778 11.3574 26.3758 11.4704 26.3738C12.8024 26.3498 14.1335 26.2859 15.4635 26.2179C15.7314 26.2049 15.9995 26.1918 16.2675 26.1788C17.6134 26.1148 18.9544 26.0358 20.2944 25.9118C20.9954 25.8478 21.6925 25.8118 22.3965 25.7958C23.1254 25.7708 23.8514 25.7449 24.5774 25.6639C24.6954 25.6509 24.8134 25.6378 24.9354 25.6248C25.3214 25.5278 25.5514 25.4078 25.8524 25.1458C26.1294 24.4758 26.0814 23.7748 26.0814 23.0609C26.0814 22.9209 26.0824 22.7808 26.0834 22.6408C26.0854 22.2618 26.0854 21.8828 26.0854 21.5028C26.0854 21.2659 26.0864 21.0288 26.0864 20.7918C26.0884 19.9648 26.0894 19.1378 26.0894 18.3109C26.0894 17.5399 26.0914 16.7688 26.0944 15.9988C26.0974 15.3359 26.0984 14.6738 26.0984 14.0109C26.0974 13.6159 26.0985 13.2208 26.1005 12.8248C26.1025 12.4538 26.1024 12.0818 26.1014 11.7109C26.1004 11.5099 26.1024 11.3088 26.1044 11.1069C26.1034 10.9869 26.1024 10.8669 26.1014 10.7439C26.1014 10.6399 26.1014 10.5358 26.1024 10.4278C26.0394 10.0719 25.8994 9.90381 25.6524 9.64582ZM23.2893 12.0408C23.4433 12.0388 23.5983 12.0408 23.7523 12.0448C23.8523 12.1448 23.8523 12.1449 23.8893 12.5328C23.8863 12.7508 23.8863 12.7509 23.8523 12.9448C23.5203 13.2478 23.1843 13.2788 22.7523 13.3448C22.7533 13.4698 22.7544 13.5939 22.7554 13.7219C22.7633 14.8939 22.7693 16.0649 22.7733 17.2359C22.7753 17.8379 22.7773 18.4409 22.7823 19.0429C22.7863 19.6239 22.7893 20.2049 22.7903 20.7859C22.7913 21.0079 22.7923 21.2289 22.7943 21.4509C22.7973 21.7619 22.7973 22.0719 22.7973 22.3819C22.7993 22.4739 22.8003 22.5659 22.8023 22.6609C22.7983 23.2838 22.7983 23.2838 22.5683 23.5948C21.8993 24.0608 21.2593 24.1698 20.4523 24.0448C19.7084 23.7628 19.3444 23.2009 18.9624 22.5339C18.7294 22.1349 18.4833 21.7439 18.2393 21.3519C18.1833 21.2609 18.1283 21.1709 18.0703 21.0769C17.4793 20.1229 16.8663 19.1848 16.2523 18.2448C16.0373 17.9149 16.0373 17.9148 14.9523 16.2448V22.6448L16.1523 22.9448C16.1853 22.9618 16.1853 22.9618 16.3523 23.0448C16.3033 23.5918 16.3033 23.5919 16.0773 23.8269C15.1683 24.3059 13.8243 24.1548 12.8143 24.1578C12.7723 24.1578 12.7723 24.1579 12.5603 24.1589C11.9643 24.1579 11.9643 24.1578 11.8523 24.0448C11.8143 23.8139 11.8143 23.8138 11.8523 23.5448C12.1903 23.1978 12.3623 23.1428 12.8523 23.0448L12.9523 14.0448L12.0523 13.9448L11.8523 13.8448C11.8163 13.4619 11.8224 13.2899 12.0393 12.9639C12.5263 12.4629 13.3243 12.5829 13.9863 12.5559C14.1653 12.5489 14.3453 12.5409 14.5243 12.5309C14.7943 12.5179 15.0634 12.5089 15.3334 12.5019C15.4174 12.4969 15.5014 12.4918 15.5884 12.4878C16.0083 12.4798 16.1883 12.4889 16.5113 12.7738C16.5953 12.8948 16.6743 13.0198 16.7523 13.1448C16.7803 13.1878 16.7803 13.1879 16.9233 13.4049C17.1263 13.7139 17.3244 14.0259 17.5214 14.3389C17.6644 14.5659 17.8083 14.7929 17.9533 15.0189C17.9873 15.0739 17.9874 15.0738 18.1624 15.3488C18.3904 15.7048 18.6234 16.0568 18.8584 16.4078C19.5324 17.4138 20.1903 18.4308 20.8523 19.4448L20.9523 13.5448L19.8523 13.4448C19.8193 13.4288 19.8193 13.4288 19.6523 13.3448C19.6683 12.9279 19.7053 12.7029 19.9733 12.3769C20.4663 11.9929 21.1004 12.0669 21.6964 12.0639C21.7563 12.0629 21.7564 12.0629 22.0603 12.0569C22.4703 12.0489 22.8793 12.0488 23.2893 12.0408ZM19.175 5.12033C17.373 5.13233 15.579 5.30434 13.787 5.48234C12.907 5.57234 12.027 5.65233 11.145 5.72033C11.029 5.72933 10.915 5.73831 10.802 5.74631C10.229 5.79031 9.65601 5.83529 9.08201 5.87629C8.86301 5.89229 8.643 5.90831 8.424 5.92531C8.16507 5.94531 8.16501 5.94534 8.11404 5.94933C8.01304 5.95533 7.91497 5.96235 7.81697 5.96935C7.72399 5.97635 7.63401 5.98335 7.54402 5.99035C7.19703 6.01635 7.10397 6.04333 6.79998 6.24533C6.70699 6.43131 6.70698 6.43135 6.69998 6.64533C6.85598 6.85833 6.85599 6.85836 7.33396 7.30734C7.42396 7.38833 7.51199 7.46634 7.59998 7.54533C8.53498 8.38433 9.32401 8.79427 10.599 8.78527C10.892 8.77827 10.892 8.77829 10.95 8.77629C11.573 8.77129 12.191 8.76231 12.811 8.69631C13.261 8.64631 13.708 8.62534 14.16 8.61134C16.123 8.55134 18.083 8.42927 20.037 8.23927C20.829 8.16028 21.618 8.12033 22.413 8.09533C22.518 8.09333 22.621 8.0903 22.724 8.0883C22.822 8.0853 22.918 8.08231 23.013 8.07931C23.366 8.07231 23.593 8.02232 23.9 7.84533C23.861 7.61134 23.83 7.47631 23.662 7.30431C23.602 7.26032 23.544 7.2183 23.486 7.17531C23.419 7.12531 23.354 7.07731 23.288 7.02931C23.216 6.97732 23.145 6.92728 23.075 6.87629C22.929 6.7703 22.782 6.66333 22.636 6.55734C22.426 6.40735 22.217 6.25829 22.01 6.10529C21.894 6.01929 21.778 5.93433 21.662 5.84933C21.527 5.75234 21.527 5.75234 21.5 5.73234C20.843 5.25636 20.219 5.12131 19.4261 5.1173C19.3401 5.1183 19.258 5.11933 19.175 5.12033Z" fill="white"/>
</svg>
